# xmcd
# 
# Track frame offsets:
#     182
#     14090
#     26370
#     42530
#     61377
#     74065
#     89785
#     107360
#     123627
#     138822
# 
# Disc length: 2055
# 
# Revision: 4
# Processed by: cddbd v1.5.2PL0 Copyright (c) Steve Scherf et al.
# Submitted via: fre:ac v1.0.31
# 
DISCID=9208050a
DTITLE=Tanya Tucker - Strong Enough To Bend
DYEAR=1988
DGENRE=Country
TTITLE0=You're Not Alone
TTITLE1=Strong Enough To Bend
TTITLE2=As Long As I'm Dreamin'
TTITLE3=Lonesome Town
TTITLE4=Daddy And Home
TTITLE5=Highway Robbery
TTITLE6=Lonely At The Right Time
TTITLE7=Playing For Keeps
TTITLE8=Call On Me
TTITLE9=Back On My Feet
EXTD=
EXTT0=
EXTT1=
EXTT2=
EXTT3=
EXTT4=
EXTT5=
EXTT6=
EXTT7=
EXTT8=
EXTT9=
PLAYORDER=
